<?xml version="1.0" encoding="UTF-8" standalone="no"?>
<!-- Created with Inkscape (http://www.inkscape.org/) -->

<svg
   width="55.953999mm"
   height="24.068186mm"
   viewBox="0 0 55.953999 24.068186"
   version="1.1"
   id="svg5241"
   inkscape:version="1.2.2 (732a01da63, 2022-12-09)"
   sodipodi:docname="qodr_logo-only_color.svg"
   xmlns:inkscape="http://www.inkscape.org/namespaces/inkscape"
   xmlns:sodipodi="http://sodipodi.sourceforge.net/DTD/sodipodi-0.dtd"
   xmlns="http://www.w3.org/2000/svg"
   xmlns:svg="http://www.w3.org/2000/svg">
  <sodipodi:namedview
     id="namedview5243"
     pagecolor="#ffffff"
     bordercolor="#999999"
     borderopacity="1"
     inkscape:showpageshadow="0"
     inkscape:pageopacity="0"
     inkscape:pagecheckerboard="0"
     inkscape:deskcolor="#d1d1d1"
     inkscape:document-units="mm"
     showgrid="false"
     inkscape:zoom="0.67526655"
     inkscape:cx="166.60088"
     inkscape:cy="-124.39532"
     inkscape:window-width="1920"
     inkscape:window-height="1013"
     inkscape:window-x="-9"
     inkscape:window-y="-9"
     inkscape:window-maximized="1"
     inkscape:current-layer="layer1" />
  <defs
     id="defs5238" />
  <g
     inkscape:label="Layer 1"
     inkscape:groupmode="layer"
     id="layer1"
     transform="translate(-60.966269,-181.52527)">
    <g
       id="g5223"
       transform="matrix(0.0254065,0,0,0.0254065,114.35276,158.93415)">
      <path
         id="path21037"
         style="fill:#212322;fill-opacity:1;stroke-width:17.0462"
         d="m -1044.4372,889.18668 v 10e-4 l -13.4785,0.23086 h -176.1796 a 91.02662,91.02662 0 0 0 -3.1193,0.38485 l -10.9781,0.0238 v 1.65055 a 91.02662,91.02662 0 0 0 -55.9633,37.66716 l -236.6015,394.1074 a 85.230917,85.230917 0 0 0 0,79.2652 l 73.2154,121.8792 v 0 l 11.4641,19.0833 c 7.6772,17.923 -0.2711,32.2569 -20.8926,33.7365 l -164.3209,-0.5807 c -27.9598,-0.2356 -53.6711,-13.5775 -69.3988,-36.6954 l -82.5208,-137.376 a 85.230917,85.230917 0 0 1 0,-79.0943 l -150.177,248.7036 a 85.230917,85.230917 0 0 0 -1.8757,74.3212 l 90.1748,150.177 a 91.02662,91.02662 0 0 0 70.0604,39.7173 h 206.2583 c 1.3633,0 2.6716,-0.057 3.9383,-0.1571 l 339.6963,0.1571 v 0 a 91.02662,91.02662 0 0 0 1.0418,0.1214 h 206.2582 c 2.3655,0 4.5801,-0.1619 6.6539,-0.4577 l 42.54379,-0.045 c 2.15368,0.3236 4.45897,0.5019 6.93157,0.5019 h 75.66897 c 0.0238,5e-4 0.0309,0 0.0476,0 h 3.64905 126.89225 a 91.02662,91.02662 0 0 0 70.06068,-39.7176 l 90.17329,-150.1769 a 85.230917,85.230917 0 0 0 0.57073,-1.2926 l 12.83545,-21.3662 59.80803,-99.5622 v 0 l 73.21278,-121.879 a 85.230917,85.230917 0 0 0 0,-79.2654 L -695.39049,929.14224 a 91.02662,91.02662 0 0 0 -70.06068,-39.71732 h -3.97868 v -0.23086 l -172.10242,0.2261 -13.20817,-0.2261 a 85.230917,85.230917 0 0 0 -1.4906,0.23086 h -15.47847 c -0.29013,0 -0.55121,0.0309 -0.83753,0.0357 l -52.83696,0.069 c -0.8156,-0.0381 -1.6036,-0.10472 -2.4535,-0.10472 h -15.1096 a 85.230917,85.230917 0 0 0 -1.4905,-0.23086 z m 44.85122,255.21372 111.15055,1.9273 a 85.230917,85.230917 0 0 1 41.25124,27.2277 l 0.42436,0.7047 c 0.43911,0.7029 1.01079,1.3148 1.5582,1.9064 a 85.230917,85.230917 0 0 1 1.98517,2.7513 l 64.95268,108.1142 20.99465,36.5528 5.01065,11.5957 a 85.230917,85.230917 0 0 1 -5.01065,67.4986 l -89.52521,149.0343 a 85.230917,85.230917 0 0 1 -41.26362,27.5168 l -115.24254,1.9974 -115.2448,-1.9974 a 85.230917,85.230917 0 0 1 -25.1861,-12.4946 l -98.5491,-164.0565 a 85.230917,85.230917 0 0 1 -4.6196,-68.4002 l 4.6196,-10.6941 20.9947,-36.5528 63.1227,-105.0677 a 85.230917,85.230917 0 0 1 47.4178,-35.6366 z" />
      <path
         d="m -57.019731,1571.9476 a 85.230917,85.230917 0 0 1 1.874981,74.3217 L 91.282002,1402.5089 a 85.230917,85.230917 0 0 0 0,-79.2652 L -145.31923,929.13652 a 91.02662,91.02662 0 0 0 -70.05996,-39.71755 h -206.25865 c -25.22847,0 -35.45613,17.04595 -22.33055,39.71755 l 147.27903,245.12388 c 0.85229,1.3635 2.21604,2.3864 2.89792,3.58 z"
         fill="url(#a)"
         id="path21039"
         style="fill:#212322;fill-opacity:1;stroke-width:17.0462" />
      <path
         d="m -421.63784,1836.5046 h 206.25865 a 91.02662,91.02662 0 0 0 70.05996,-39.7176 l 90.17448,-150.1769 a 85.230917,85.230917 0 0 0 -1.874981,-74.3209 L -207.19692,1323.5853 a 85.230917,85.230917 0 0 1 0,79.0938 l -146.42682,243.761 c -0.85229,1.7041 -1.19311,3.5791 -2.04539,5.1133 l -89.83342,149.6657 c -9.20497,19.603 0,35.2855 23.86471,35.2855 z"
         fill="url(#b)"
         id="path21041"
         style="fill:#00b140;fill-opacity:1;stroke-width:17.0462" />
      <path
         d="m -1943.2155,1571.8341 a 85.230917,85.230917 0 0 0 -1.875,74.3216 l -146.427,-243.7603 a 85.230917,85.230917 0 0 1 0,-79.2649 l 236.6013,-394.10726 a 91.02662,91.02662 0 0 1 70.0599,-39.71756 h 206.2586 c 25.2285,0 35.4561,17.04595 22.3306,39.71756 l -147.2791,245.12386 c -0.8523,1.3635 -2.216,2.3864 -2.8979,3.5798 z"
         fill="url(#a)"
         id="path21043"
         style="fill:#00b140;fill-opacity:1;stroke-width:17.0462" />
    </g>
  </g>
</svg>
